<!DOCTYPE svg PUBLIC "-//W3C//DTD SVG 1.1//EN" "http://www.w3.org/Graphics/SVG/1.1/DTD/svg11.dtd">
<!-- Uploaded to: SVG Repo, www.svgrepo.com, Transformed by: SVG Repo Mixer Tools -->
<svg width="800px" height="800px" viewBox="0 0 512 512" version="1.1" xml:space="preserve" xmlns="http://www.w3.org/2000/svg" xmlns:xlink="http://www.w3.org/1999/xlink" fill="#000000">
<g id="SVGRepo_bgCarrier" stroke-width="0"/>
<g id="SVGRepo_tracerCarrier" stroke-linecap="round" stroke-linejoin="round"/>
<g id="SVGRepo_iconCarrier"> <style type="text/css"> .st0{fill:#fcfcfc;} .st1{fill:none;stroke:#fcfcfc;stroke-width:32;stroke-linecap:round;stroke-linejoin:round;stroke-miterlimit:10;} </style> <g id="Layer_1"/> <g id="Layer_2"> <g> <g> <path class="st0" d="M157.14,298.87h197.72c3.48,0,6.3-2.82,6.3-6.3v-119.2c0-3.48-2.82-6.3-6.3-6.3h-40.29 c-2.85,0-5.34-1.91-6.08-4.66l-6.21-23c-0.74-2.75-3.23-4.66-6.08-4.66h-25.76h-28.87H215.8c-2.85,0-5.34,1.91-6.08,4.66 l-6.21,23c-0.74,2.75-3.23,4.66-6.08,4.66h-40.29c-3.48,0-6.3,2.82-6.3,6.3v119.2C150.84,296.05,153.66,298.87,157.14,298.87z M256,193.82c17.19,0,31.12,13.93,31.12,31.12s-13.93,31.12-31.12,31.12s-31.12-13.93-31.12-31.12S238.81,193.82,256,193.82z"/> </g> <g> <path class="st0" d="M446.36,285.83c3-2.72,4.9-6.64,4.9-11.02c0-8.22-6.66-14.88-14.88-14.88h-27.33 c-8.22,0-14.88,6.66-14.88,14.88v27.33c0,8.22,6.66,14.88,14.88,14.88c6.69,0,12.34-4.41,14.22-10.48 c12.33,6.71,15.47,12.18,15.47,14.12c0,3.31-8.67,15.27-47.17,26.52c-36.01,10.51-84.15,16.3-135.57,16.3 s-99.56-5.79-135.57-16.3c-38.51-11.24-47.17-23.21-47.17-26.52c0-2.38,4.97-10.57,27.65-19.81c7.61-3.1,11.27-11.78,8.17-19.39 c-3.1-7.61-11.78-11.27-19.39-8.17c-30.65,12.48-46.19,28.42-46.19,47.37c0,8.92,3.81,22.18,21.96,34.7 c11.27,7.78,26.96,14.63,46.63,20.38c38.64,11.28,89.75,17.5,143.91,17.5s105.27-6.21,143.91-17.5 c19.68-5.75,35.37-12.6,46.63-20.38c18.15-12.53,21.96-25.79,21.96-34.7C468.5,307.56,461.07,295.9,446.36,285.83z"/> </g> </g> </g> </g>
</svg>